<?xml version="1.0" encoding="UTF-8"?>
<svg width="255px" height="255px" viewBox="0 0 255 255" version="1.1" xmlns="http://www.w3.org/2000/svg" xmlns:xlink="http://www.w3.org/1999/xlink">
    <title>search/icons/search copy</title>
    <defs>
        <linearGradient x1="50%" y1="0.751201923%" x2="50%" y2="100%" id="linearGradient-1">
            <stop stop-color="#99A2AD" offset="0%"></stop>
            <stop stop-color="#E6EBEF" offset="100%"></stop>
        </linearGradient>
    </defs>
    <g id="site_1.1" stroke="none" stroke-width="1" fill="none" fill-rule="evenodd" opacity="0.200000003">
        <g id="Medium-Devices:-Tablets---6-col-Copy-2" transform="translate(-448.000000, -1456.000000)" fill="url(#linearGradient-1)" fill-rule="nonzero">
            <g id="3-copy-2" transform="translate(39.000000, 1428.000000)">
                <g id="search/icons/search-copy" transform="translate(409.000000, 28.000000)">
                    <path d="M105.807675,0 C164.243641,0 211.615351,47.3717098 211.615351,105.807675 C211.615351,130.560234 203.115745,153.327603 188.875937,171.350377 C189.172343,171.594185 189.461042,171.856966 189.739809,172.135733 L251.354076,233.75 C256.215308,238.611231 256.215308,246.492845 251.354076,251.354076 C246.492845,256.215308 238.611231,256.215308 233.75,251.354076 L172.135733,189.739809 C171.856966,189.461042 171.594185,189.172343 171.34739,188.874851 C153.327603,203.115745 130.560234,211.615351 105.807675,211.615351 C47.3717098,211.615351 0,164.243641 0,105.807675 C0,47.3717098 47.3717098,0 105.807675,0 Z M105.807675,24.8959236 C61.1213488,24.8959236 24.8959236,61.1213488 24.8959236,105.807675 C24.8959236,150.494002 61.1213488,186.719427 105.807675,186.719427 C150.494002,186.719427 186.719427,150.494002 186.719427,105.807675 C186.719427,61.1213488 150.494002,24.8959236 105.807675,24.8959236 Z" id="icon_search"></path>
                </g>
            </g>
        </g>
    </g>
</svg>