<?xml version="1.0" encoding="UTF-8"?>
<svg width="255px" height="218px" viewBox="0 0 255 218" version="1.1" xmlns="http://www.w3.org/2000/svg" xmlns:xlink="http://www.w3.org/1999/xlink">
    <title>messages 2</title>
    <defs>
        <linearGradient x1="50%" y1="14.0061533%" x2="52.4377071%" y2="91.643134%" id="linearGradient-1">
            <stop stop-color="#99A2AD" offset="0%"></stop>
            <stop stop-color="#C9D1D9" offset="100%"></stop>
        </linearGradient>
    </defs>
    <g id="site_1.1" stroke="none" stroke-width="1" fill="none" fill-rule="evenodd" opacity="0.100000001">
        <g id="Medium-Devices:-Tablets---6-col-Copy-2" transform="translate(-427.000000, -2237.000000)" fill-rule="nonzero" stroke="url(#linearGradient-1)" stroke-width="18.2142857">
            <g id="3-copy-2" transform="translate(-49.000000, 2183.000000)">
                <g id="messages-2" transform="translate(476.000000, 54.000000)">
                    <path d="M127.502243,9.10714286 C149.386463,9.10714286 169.577335,12.8994831 188.054003,20.5470188 C206.05875,27.999951 220.371495,38.0851936 230.870771,50.9528019 C240.816175,63.1431646 245.892857,76.4088563 245.892857,90.815883 C245.892857,105.221623 240.815733,118.48744 230.866656,130.675528 C220.369032,143.541073 206.057933,153.626644 188.050825,161.079067 C169.572272,168.729892 149.382652,172.522138 127.499252,172.522138 C121.168325,172.522138 114.611361,172.158168 107.830061,171.43701 C106.481169,171.293562 105.143926,171.138164 103.815677,170.971126 C102.83957,171.879055 101.849181,172.77587 100.844504,173.661567 C83.1449039,189.265068 62.5778144,200.036473 39.1573243,206.011316 C36.7762243,206.689174 34.2697616,207.26956 31.6015848,207.768281 L31.156,207.849 L31.2634976,207.731279 C31.7928323,207.145486 32.4025783,206.472186 33.0925678,205.711146 L33.355075,205.421643 C33.8994634,204.823427 34.407149,204.265421 34.8781452,203.747741 C36.3667924,202.111544 37.487075,200.880198 38.2307843,200.066874 C39.3656793,198.829274 41.0565895,196.713101 43.2673192,193.70055 C45.5257389,190.627167 47.3001283,187.819221 48.6234403,185.292541 C49.8588617,182.931613 51.2547856,179.902051 52.7978051,176.209129 C54.3652652,172.461764 55.7254171,168.502807 56.8757945,164.337201 C57.5428225,161.921842 58.1136638,159.529919 58.5880596,157.161493 C56.5836333,156.175269 54.580521,155.116201 52.5786207,153.984647 C38.9746663,146.295147 28.2096885,136.831371 20.3634395,125.507904 C12.8940125,114.726957 9.10714286,103.171191 9.10714286,90.81638 C9.10714286,80.1463968 12.0699656,69.962791 17.910255,60.2443397 C24.0206357,50.0768977 32.254692,41.32212 42.5797005,33.944178 C53.219036,26.341225 65.9127474,20.3435143 80.6254357,15.8804869 C95.5320122,11.3581739 111.158593,9.10714286 127.502243,9.10714286 Z" id="icon/messages"></path>
                </g>
            </g>
        </g>
    </g>
</svg>