<?xml version="1.0" encoding="UTF-8"?>
<svg width="255px" height="256px" viewBox="0 0 255 256" version="1.1" xmlns="http://www.w3.org/2000/svg" xmlns:xlink="http://www.w3.org/1999/xlink">
    <title>destination</title>
    <defs>
        <linearGradient x1="50%" y1="0.751201923%" x2="50%" y2="100%" id="linearGradient-1">
            <stop stop-color="#99A2AD" offset="0%"></stop>
            <stop stop-color="#E6EBEF" offset="100%"></stop>
        </linearGradient>
    </defs>
    <g id="site_1.1" stroke="none" stroke-width="1" fill="none" fill-rule="evenodd" opacity="0.200000003">
        <g id="Medium-Devices:-Tablets---6-col-Copy-2" transform="translate(-24.000000, -1838.000000)" fill="url(#linearGradient-1)" fill-rule="nonzero">
            <g id="3-copy-3" transform="translate(24.000000, 1791.000000)">
                <g id="destination" transform="translate(0.000000, 47.000000)">
                    <path d="M220.442658,72.5581898 C230.063343,60.7155172 246.895776,37.6896552 246.895776,26.4827586 C246.895776,11.8577589 235.051289,0 220.442658,0 C205.834026,0 193.989539,11.8577589 193.989539,26.4827586 C193.989539,37.6810345 210.817666,60.7155172 220.442658,72.5581898 Z M71.488865,247.172414 C73.923637,247.172414 75.8977181,249.148707 75.8977181,251.586207 C75.8977181,254.023707 73.923637,256 71.488865,256 L71.488865,256 L62.5032431,256 C60.0684716,256 58.0943899,254.023707 58.0943899,251.586207 C58.0943899,249.148707 60.0684716,247.172414 62.5032431,247.172414 L62.5032431,247.172414 Z M98.437119,247.172414 C100.871891,247.172414 102.845972,249.148707 102.845972,251.586207 C102.845972,254.023707 100.871891,256 98.437119,256 L98.437119,256 L89.4558024,256 C87.0210309,256 85.0469492,254.023707 85.0469492,251.586207 C85.0469492,249.148707 87.0210309,247.172414 89.4558024,247.172414 L89.4558024,247.172414 Z M125.387525,247.172414 C127.822297,247.172414 129.796378,249.148707 129.796378,251.586207 C129.796378,254.023707 127.822297,256 125.387525,256 L125.387525,256 L116.393293,256 C113.958521,256 111.98444,254.023707 111.98444,251.586207 C111.98444,249.148707 113.958521,247.172414 116.393293,247.172414 L116.393293,247.172414 Z M179.290491,247.172414 C181.725263,247.172414 183.699344,249.148707 183.699344,251.586207 C183.699344,254.023707 181.725263,256 179.290491,256 L179.290491,256 L170.309175,256 C167.874403,256 165.900322,254.023707 165.900322,251.586207 C165.900322,249.148707 167.874403,247.172414 170.309175,247.172414 L170.309175,247.172414 Z M152.34439,247.172414 C154.779162,247.172414 156.753243,249.148707 156.753243,251.586207 C156.753243,254.023707 154.779162,256 152.34439,256 L152.34439,256 L143.358768,256 C140.923997,256 138.949915,254.023707 138.949915,251.586207 C138.949915,249.148707 140.923997,247.172414 143.358768,247.172414 L143.358768,247.172414 Z M44.0885315,247.172414 C46.5233036,247.172414 48.4973847,249.148707 48.4973847,251.586207 C48.4973847,254.023707 46.5233036,256 44.0885315,256 L44.0885315,256 L39.6796784,256 C37.2449063,256 35.2708252,254.023707 35.2708252,251.586207 C35.2708252,249.148707 37.2449063,247.172414 39.6796784,247.172414 L39.6796784,247.172414 Z M205.646736,246.987069 C208.062133,246.674569 210.273018,248.381465 210.585168,250.799569 C210.895165,253.217672 209.190179,255.431034 206.774782,255.743534 C205.459446,255.913793 204.133345,256 202.807245,256 L202.807245,256 L197.257429,256 C194.820504,256 192.848576,254.023707 192.848576,251.586207 C192.848576,249.148707 194.820504,247.172414 197.257429,247.172414 L197.257429,247.172414 L202.807245,247.172414 C203.763071,247.174569 204.716743,247.112069 205.663958,246.987069 L205.663958,246.987069 Z M222.920485,234.146552 C223.921518,231.926724 226.530664,230.939655 228.748007,231.939655 C230.967503,232.939655 231.957772,235.549569 230.963197,237.771552 C229.525153,240.967672 227.548919,243.896552 225.124911,246.426724 C224.046378,247.607758 222.412433,248.112069 220.855988,247.743534 C219.301695,247.377155 218.06601,246.193965 217.629,244.653017 C217.191989,243.114224 217.622541,241.459052 218.754893,240.327586 C220.48356,238.519396 221.893618,236.428879 222.920485,234.146552 Z M39.6796784,119.741379 C61.5947785,119.741379 79.3593567,137.525862 79.3593567,159.465517 C79.3593567,176.586207 53.2980405,214.036638 39.6796784,231.758621 C26.0613162,214.043103 0,176.599138 0,159.465517 C0,137.525862 17.7645782,119.741379 39.6796784,119.741379 Z M222.210074,206.601293 C224.225057,205.224138 226.971979,205.741379 228.347593,207.756466 C230.328133,210.670259 231.789857,213.903017 232.672489,217.3125 C233.135332,218.862069 232.715544,220.540948 231.578887,221.6875 C230.440076,222.836207 228.767382,223.269396 227.217394,222.81681 C225.665254,222.364224 224.485542,221.099138 224.1411,219.519396 C223.508188,217.101293 222.4641,214.810345 221.056194,212.745689 C219.680581,210.728448 220.197243,207.978449 222.210074,206.601293 Z M202.807245,194.206827 C205.855554,194.200431 208.888793,194.646552 211.805783,195.530173 L211.805783,195.530173 L211.805783,195.545258 C213.898266,196.178879 215.209297,198.252155 214.888536,200.418103 C214.565622,202.581897 212.70779,204.18319 210.522738,204.181037 C210.087881,204.181037 209.655175,204.11638 209.239693,203.987069 C207.153668,203.355603 204.985838,203.034483 202.807245,203.034483 L202.807245,203.034483 L201.651213,203.034483 C199.216441,203.034483 197.24236,201.05819 197.24236,198.62069 C197.24236,196.18319 199.216441,194.206827 201.651213,194.206827 L201.651213,194.206827 Z M183.686428,194.206897 C186.121199,194.206897 188.095281,196.18319 188.095281,198.62069 C188.095281,201.05819 186.121199,203.034483 183.686428,203.034483 L183.686428,203.034483 L174.705111,203.034483 C172.27034,203.034483 170.296258,201.05819 170.296258,198.62069 C170.296258,196.18319 172.27034,194.206897 174.705111,194.206897 L174.705111,194.206897 Z M156.738174,194.206897 C159.175099,194.206897 161.147027,196.18319 161.147027,198.62069 C161.147027,201.05819 159.175099,203.034483 156.738174,203.034483 L156.738174,203.034483 L147.754705,203.034483 C145.319933,203.034483 143.345852,201.05819 143.345852,198.62069 C143.345852,196.18319 145.319933,194.206897 147.754705,194.206897 L147.754705,194.206897 Z M120.500759,187.452586 C122.423174,185.956897 125.193777,186.303879 126.687792,188.230604 C128.127989,190.077586 129.959988,191.577586 132.054624,192.622845 C134.179398,193.730604 135.031891,196.338362 133.970581,198.489224 C132.90927,200.642241 130.323804,201.551724 128.151669,200.536638 C124.860099,198.903017 121.979706,196.547414 119.72146,193.646552 C118.229597,191.719828 118.576191,188.946121 120.500759,187.452586 Z M120.300552,163.146552 C121.299433,161.896552 122.898934,161.286638 124.474755,161.551724 C126.052728,161.818966 127.363759,162.920259 127.897644,164.431034 C128.431529,165.939655 128.108614,167.62069 127.049456,168.823276 C125.551135,170.62069 124.476908,172.732759 123.906426,175.002155 C123.417749,176.965517 121.656792,178.344828 119.633197,178.349138 C119.273686,178.349138 118.912022,178.306035 118.563275,178.215517 C117.426618,177.93319 116.449264,177.209052 115.848645,176.202586 C115.245872,175.198276 115.067192,173.993534 115.353509,172.857759 C116.246905,169.286638 117.938974,165.967672 120.300552,163.146552 Z M39.6796784,139.051724 C29.9405906,139.051724 22.0442658,146.956897 22.0442658,156.706897 C22.0442658,166.456897 29.9405906,174.362069 39.6796784,174.362069 C49.4187661,174.362069 57.315091,166.456897 57.315091,156.706897 C57.315091,146.956897 49.4187661,139.051724 39.6796784,139.051724 Z M202.402526,154.482759 C204.837298,154.482759 206.811379,156.459052 206.811379,158.896552 C206.811379,161.334052 204.837298,163.310345 202.402526,163.310345 L202.402526,163.310345 L193.42121,163.310345 C190.986438,163.310345 189.012357,161.334052 189.012357,158.896552 C189.012357,156.459052 190.986438,154.482759 193.42121,154.482759 L193.42121,154.482759 Z M229.352933,154.482759 C231.787705,154.482759 233.761786,156.459052 233.761786,158.896552 C233.761786,161.334052 231.787705,163.310345 229.352933,163.310345 L229.352933,163.310345 L220.367311,163.310345 C217.932539,163.310345 215.958458,161.334052 215.958458,158.896552 C215.958458,156.459052 217.932539,154.482759 220.367311,154.482759 L220.367311,154.482759 Z M148.503866,154.482759 C150.938637,154.482759 152.912719,156.459052 152.912719,158.896552 C152.912719,161.334052 150.938637,163.310345 148.503866,163.310345 L148.503866,163.310345 L139.52255,163.310345 C137.087778,163.310345 135.113697,161.334052 135.113697,158.896552 C135.113697,156.459052 137.087778,154.482759 139.52255,154.482759 L139.52255,154.482759 Z M175.471495,154.482759 C177.906266,154.482759 179.880348,156.459052 179.880348,158.896552 C179.880348,161.334052 177.906266,163.310345 175.471495,163.310345 L175.471495,163.310345 L166.468651,163.310345 C164.033879,163.310345 162.059797,161.334052 162.059797,158.896552 C162.059797,156.459052 164.033879,154.482759 166.468651,154.482759 L166.468651,154.482759 Z M248.480208,142.372845 C249.509228,141.8125 250.716926,141.685345 251.838514,142.017241 C252.960102,142.349138 253.905164,143.114224 254.464882,144.142241 C255.022447,145.172414 255.151612,146.381465 254.817934,147.50431 C253.74586,151.114224 251.773931,154.390086 249.087286,157.025862 C247.345703,158.730604 244.553573,158.702586 242.848587,156.959052 C241.143601,155.215517 241.17374,152.420259 242.915323,150.713362 C244.525587,149.131465 245.709605,147.165948 246.357587,145.002155 C246.689111,143.87931 247.453342,142.93319 248.480208,142.372845 Z M235.229968,123.105603 C236.022184,120.799569 238.53015,119.571121 240.833603,120.364224 C244.389963,121.592673 247.576049,123.706897 250.092625,126.508621 C251.255116,127.806035 251.545739,129.665948 250.837481,131.256466 C250.12707,132.846983 248.549096,133.872845 246.807513,133.870693 C245.554607,133.870693 244.359825,133.338362 243.522401,132.405172 C242.015469,130.719828 240.103817,129.450431 237.968279,128.715517 C235.664826,127.922414 234.437752,125.411638 235.229968,123.105603 Z M167.633294,119.172414 C170.068066,119.172414 172.042147,121.148707 172.042147,123.586207 C172.042147,126.023707 170.068066,128.000002 167.633294,128.000002 L167.633294,128.000002 L158.718713,128.000002 C156.277483,128.002155 154.290486,126.030173 154.275297,123.586207 C154.266805,122.420259 154.725343,121.297414 155.545545,120.469827 C156.365747,119.642241 157.483029,119.174569 158.647672,119.172414 L158.647672,119.172414 Z M221.53626,119.172414 C223.971032,119.172414 225.945113,121.148707 225.945113,123.586207 C225.945113,126.023707 223.971032,128 221.53626,128 L221.53626,128 L212.554944,128 C210.120172,128 208.146091,126.023707 208.146091,123.586207 C208.146091,121.148707 210.120172,119.172414 212.554944,119.172414 L212.554944,119.172414 Z M194.59877,119.172414 C197.033542,119.172414 199.007623,121.148707 199.007623,123.586207 C199.007623,126.023707 197.033542,128 194.59877,128 L194.59877,128 L185.613148,128 C183.178376,128 181.204295,126.023707 181.204295,123.586207 C181.204295,121.148707 183.178376,119.172414 185.613148,119.172414 L185.613148,119.172414 Z M143.00141,102.325431 C144.105776,100.150862 146.76013,99.2866378 148.930112,100.392242 C151.102248,101.497845 151.965504,104.155172 150.861139,106.327586 C150.228227,107.573276 149.898855,108.948276 149.901007,110.344828 C149.90316,110.961207 149.96559,111.573276 150.09045,112.176724 C150.587738,114.560345 149.063583,116.896552 146.68263,117.398707 C146.383397,117.463362 146.077705,117.49569 145.76986,117.49569 C143.683835,117.491379 141.88628,116.021551 141.462187,113.978449 C140.631221,110.032328 141.173716,105.918103 143.00141,102.325431 Z M220.442658,92.6896552 C222.87743,92.6896552 224.851511,94.6659481 224.851511,97.1034483 C224.851511,99.5409484 222.87743,101.517241 220.442658,101.517241 L220.442658,101.517241 L216.033804,101.517241 C213.599032,101.517241 211.624951,99.5409484 211.624951,97.1034483 C211.624951,94.6659481 213.599032,92.6896552 216.033804,92.6896552 L216.033804,92.6896552 Z M198.066867,92.6896552 C200.501638,92.6896552 202.47572,94.6659481 202.47572,97.1034483 C202.47572,99.5409484 200.501638,101.517241 198.066867,101.517241 L198.066867,101.517241 L189.083398,101.517241 C186.646473,101.517241 184.674545,99.5409484 184.674545,97.1034483 C184.674545,94.6659481 186.646473,92.6896552 189.083398,92.6896552 L189.083398,92.6896552 Z M171.11646,92.6896552 C173.551232,92.6896552 175.525313,94.6659481 175.525313,97.1034483 C175.525313,99.5409484 173.551232,101.517241 171.11646,101.517241 L171.11646,101.517241 L162.130838,101.517241 C159.696067,101.517241 157.721985,99.5409484 157.721985,97.1034483 C157.721985,94.6659481 159.696067,92.6896552 162.130838,92.6896552 L162.130838,92.6896552 Z M220.442658,11.5862069 C227.746973,11.5862069 233.669217,17.5150863 233.669217,24.8275862 C233.669217,32.1400861 227.746973,38.0689655 220.442658,38.0689655 C213.138342,38.0689655 207.216098,32.1400861 207.216098,24.8275862 C207.216098,17.5150863 213.138342,11.5862069 220.442658,11.5862069 Z" id="Shape"></path>
                </g>
            </g>
        </g>
    </g>
</svg>