<?xml version="1.0" encoding="UTF-8"?>
<svg width="188px" height="60px" viewBox="0 0 188 60" version="1.1" xmlns="http://www.w3.org/2000/svg" xmlns:xlink="http://www.w3.org/1999/xlink">
    <title>Download_on_the_App_Store_Badge Copy</title>
    <g id="site_1.1" stroke="none" stroke-width="1" fill="none" fill-rule="evenodd">
        <g id="Medium-Devices:-Tablets---6-col" transform="translate(-41.000000, -295.000000)" fill-rule="nonzero">
            <g id="Group-5" transform="translate(39.000000, 86.000000)">
                <g id="1" transform="translate(0.000000, 15.000000)">
                    <g id="Download_on_the_App_Store_Badge-Copy" transform="translate(2.000000, 194.000000)">
                        <path d="M176,60 L12,60 C5.372583,60 8.11624501e-16,54.627417 0,48 L0,12 C-2.58798134e-15,5.372583 5.372583,1.21743675e-15 12,0 L176,0 C182.627417,-1.21743675e-15 188,5.372583 188,12 L188,48 C188,54.627417 182.627417,60 176,60 Z" id="Path" fill="#0B2C47"></path>
                        <g id="Group-3" transform="translate(18.171755, 10.297600)" fill="#FFFFFF">
                            <g id="Group">
                                <path d="M23.7752169,18.6061714 C23.7354455,14.1860571 27.3944169,12.0356571 27.5617312,11.9355429 C25.4895026,8.91428571 22.2776169,8.50148571 21.1489312,8.46857143 C18.4513312,8.18468571 15.8346455,10.0827429 14.460474,10.0827429 C13.058874,10.0827429 10.9427597,8.496 8.66207403,8.54262857 C5.72721689,8.58788571 2.98161689,10.2870857 1.47578831,12.9257143 C-1.63186883,18.3058286 0.685845457,26.2121143 3.66321689,30.5609143 C5.15258831,32.6907429 6.89293117,35.0688 9.17087403,34.9851429 C11.3994455,34.8932571 12.2319026,33.5643429 14.921274,33.5643429 C17.5859597,33.5643429 18.367674,34.9851429 20.690874,34.9316571 C23.0826455,34.8932571 24.588474,32.7922286 26.0257312,30.6432 C27.746874,28.2020571 28.438074,25.7979429 28.4655026,25.6745143 C28.409274,25.6553143 23.820474,23.904 23.7752169,18.6061714 Z" id="Path"></path>
                                <path d="M19.3866455,5.60777143 C20.585274,4.1088 21.4053883,2.06948571 21.1777312,0 C19.442874,0.0768 17.273274,1.2 16.0239026,2.66605714 C14.9185312,3.95794286 13.9311026,6.07542857 14.1861883,8.06674286 C16.1349883,8.21211429 18.1359026,7.08342857 19.3866455,5.60777143 Z" id="Path"></path>
                            </g>
                            <g id="Group-14" transform="translate(42.374912, 1.443733)">
                                <g id="Group" transform="translate(0.000000, 15.260000)">
                                    <path d="M14.98,18.004 L11.952,18.004 L10.2933333,12.792 L4.528,12.792 L2.948,18.004 L0,18.004 L5.712,0.26 L9.24,0.26 L14.98,18.004 Z M9.79333333,10.6053333 L8.29333333,5.972 C8.13466667,5.49866667 7.83733333,4.384 7.39866667,2.62933333 L7.34533333,2.62933333 C7.17066667,3.384 6.88933333,4.49866667 6.50266667,5.972 L5.02933333,10.6053333 L9.79333333,10.6053333 L9.79333333,10.6053333 Z" id="Shape"></path>
                                    <path d="M29.6693333,11.4493333 C29.6693333,13.6253333 29.0813333,15.3453333 27.9053333,16.608 C26.852,17.732 25.544,18.2933333 23.9826667,18.2933333 C22.2973333,18.2933333 21.0866667,17.688 20.3493333,16.4773333 L20.296,16.4773333 L20.296,23.2173333 L17.4533333,23.2173333 L17.4533333,9.42133333 C17.4533333,8.05333333 17.4173333,6.64933333 17.348,5.20933333 L19.848,5.20933333 L20.0066667,7.23733333 L20.06,7.23733333 C21.008,5.70933333 22.4466667,4.94666667 24.3773333,4.94666667 C25.8866667,4.94666667 27.1466667,5.54266667 28.1546667,6.736 C29.1653333,7.93066667 29.6693333,9.50133333 29.6693333,11.4493333 Z M26.7733333,11.5533333 C26.7733333,10.308 26.4933333,9.28133333 25.9306667,8.47333333 C25.316,7.63066667 24.4906667,7.20933333 23.456,7.20933333 C22.7546667,7.20933333 22.1173333,7.444 21.548,7.90666667 C20.9773333,8.37333333 20.604,8.98266667 20.4293333,9.73733333 C20.3413333,10.0893333 20.2973333,10.3773333 20.2973333,10.604 L20.2973333,12.7373333 C20.2973333,13.668 20.5826667,14.4533333 21.1533333,15.0946667 C21.724,15.736 22.4653333,16.056 23.3773333,16.056 C24.448,16.056 25.2813333,15.6426667 25.8773333,14.8186667 C26.4746667,13.9933333 26.7733333,12.9053333 26.7733333,11.5533333 Z" id="Shape"></path>
                                    <path d="M44.3853333,11.4493333 C44.3853333,13.6253333 43.7973333,15.3453333 42.62,16.608 C41.568,17.732 40.26,18.2933333 38.6986667,18.2933333 C37.0133333,18.2933333 35.8026667,17.688 35.0666667,16.4773333 L35.0133333,16.4773333 L35.0133333,23.2173333 L32.1706667,23.2173333 L32.1706667,9.42133333 C32.1706667,8.05333333 32.1346667,6.64933333 32.0653333,5.20933333 L34.5653333,5.20933333 L34.724,7.23733333 L34.7773333,7.23733333 C35.724,5.70933333 37.1626667,4.94666667 39.0946667,4.94666667 C40.6026667,4.94666667 41.8626667,5.54266667 42.8733333,6.736 C43.88,7.93066667 44.3853333,9.50133333 44.3853333,11.4493333 Z M41.4893333,11.5533333 C41.4893333,10.308 41.208,9.28133333 40.6453333,8.47333333 C40.0306667,7.63066667 39.208,7.20933333 38.172,7.20933333 C37.4693333,7.20933333 36.8333333,7.444 36.2626667,7.90666667 C35.692,8.37333333 35.32,8.98266667 35.1453333,9.73733333 C35.0586667,10.0893333 35.0133333,10.3773333 35.0133333,10.604 L35.0133333,12.7373333 C35.0133333,13.668 35.2986667,14.4533333 35.8666667,15.0946667 C36.4373333,15.7346667 37.1786667,16.056 38.0933333,16.056 C39.164,16.056 39.9973333,15.6426667 40.5933333,14.8186667 C41.1906667,13.9933333 41.4893333,12.9053333 41.4893333,11.5533333 Z" id="Shape"></path>
                                    <path d="M60.8386667,13.028 C60.8386667,14.5373333 60.3146667,15.7653333 59.2626667,16.7133333 C58.1066667,17.7493333 56.4973333,18.2666667 54.4293333,18.2666667 C52.52,18.2666667 50.9893333,17.8986667 49.8306667,17.1613333 L50.4893333,14.792 C51.7373333,15.5466667 53.1066667,15.9253333 54.5986667,15.9253333 C55.6693333,15.9253333 56.5026667,15.6826667 57.1013333,15.2 C57.6973333,14.7173333 57.9946667,14.0693333 57.9946667,13.2613333 C57.9946667,12.5413333 57.7493333,11.9346667 57.2573333,11.4426667 C56.768,10.9506667 55.9506667,10.4933333 54.8093333,10.0706667 C51.7026667,8.912 50.1506667,7.21466667 50.1506667,4.98266667 C50.1506667,3.524 50.6946667,2.328 51.784,1.39733333 C52.8693333,0.465333333 54.3173333,0 56.128,0 C57.7426667,0 59.084,0.281333333 60.1546667,0.842666667 L59.444,3.16 C58.444,2.616 57.3133333,2.344 56.048,2.344 C55.048,2.344 54.2666667,2.59066667 53.7066667,3.08133333 C53.2333333,3.52 52.996,4.05466667 52.996,4.688 C52.996,5.38933333 53.2666667,5.96933333 53.8106667,6.42533333 C54.284,6.84666667 55.144,7.30266667 56.392,7.79466667 C57.9186667,8.40933333 59.04,9.128 59.7613333,9.952 C60.48,10.7733333 60.8386667,11.8013333 60.8386667,13.028 Z" id="Path"></path>
                                    <path d="M70.2373333,7.34266667 L67.104,7.34266667 L67.104,13.5546667 C67.104,15.1346667 67.656,15.924 68.7626667,15.924 C69.2706667,15.924 69.692,15.88 70.0253333,15.792 L70.104,17.9506667 C69.544,18.16 68.8066667,18.2653333 67.8933333,18.2653333 C66.7706667,18.2653333 65.8933333,17.9226667 65.26,17.2386667 C64.6293333,16.5533333 64.312,15.404 64.312,13.7893333 L64.312,7.34 L62.4453333,7.34 L62.4453333,5.20666667 L64.312,5.20666667 L64.312,2.864 L67.104,2.02133333 L67.104,5.20666667 L70.2373333,5.20666667 L70.2373333,7.34266667 Z" id="Path"></path>
                                    <path d="M84.3746667,11.5013333 C84.3746667,13.468 83.812,15.0826667 82.6893333,16.3453333 C81.512,17.6453333 79.9493333,18.2933333 78.0013333,18.2933333 C76.124,18.2933333 74.6293333,17.6706667 73.5146667,16.4253333 C72.4,15.18 71.8426667,13.608 71.8426667,11.7133333 C71.8426667,9.73066667 72.416,8.10666667 73.5666667,6.844 C74.7146667,5.58 76.264,4.948 78.212,4.948 C80.0893333,4.948 81.6,5.57066667 82.74,6.81733333 C83.8306667,8.02666667 84.3746667,9.588 84.3746667,11.5013333 Z M81.4253333,11.5933333 C81.4253333,10.4133333 81.1733333,9.40133333 80.6626667,8.55733333 C80.0666667,7.536 79.2146667,7.02666667 78.1106667,7.02666667 C76.968,7.02666667 76.1,7.53733333 75.504,8.55733333 C74.9933333,9.40266667 74.7413333,10.4306667 74.7413333,11.6466667 C74.7413333,12.8266667 74.9933333,13.8386667 75.504,14.6813333 C76.1186667,15.7026667 76.9773333,16.212 78.0853333,16.212 C79.1706667,16.212 80.0226667,15.692 80.6373333,14.6546667 C81.1613333,13.7946667 81.4253333,12.772 81.4253333,11.5933333 Z" id="Shape"></path>
                                    <path d="M93.6146667,7.70933333 C93.3333333,7.65733333 93.0333333,7.63066667 92.7186667,7.63066667 C91.7186667,7.63066667 90.9453333,8.008 90.4013333,8.764 C89.928,9.43066667 89.6906667,10.2733333 89.6906667,11.2906667 L89.6906667,18.004 L86.8493333,18.004 L86.876,9.23866667 C86.876,7.764 86.84,6.42133333 86.7693333,5.21066667 L89.2453333,5.21066667 L89.3493333,7.65866667 L89.428,7.65866667 C89.728,6.81733333 90.2013333,6.14 90.8493333,5.632 C91.4826667,5.17466667 92.1666667,4.94666667 92.904,4.94666667 C93.1666667,4.94666667 93.404,4.96533333 93.6146667,4.99866667 L93.6146667,7.70933333 Z" id="Path"></path>
                                    <path d="M106.328,11.0013333 C106.328,11.5106667 106.294667,11.94 106.224,12.2906667 L97.696,12.2906667 C97.7293333,13.5546667 98.1413333,14.5213333 98.9333333,15.188 C99.652,15.784 100.581333,16.0826667 101.722667,16.0826667 C102.985333,16.0826667 104.137333,15.8813333 105.173333,15.4773333 L105.618667,17.4506667 C104.408,17.9786667 102.978667,18.2413333 101.329333,18.2413333 C99.3453333,18.2413333 97.788,17.6573333 96.6546667,16.4906667 C95.524,15.324 94.9573333,13.7573333 94.9573333,11.792 C94.9573333,9.86266667 95.484,8.256 96.5386667,6.97466667 C97.6426667,5.60666667 99.1346667,4.92266667 101.012,4.92266667 C102.856,4.92266667 104.252,5.60666667 105.2,6.97466667 C105.950667,8.06133333 106.328,9.40533333 106.328,11.0013333 Z M103.617333,10.264 C103.636,9.42133333 103.450667,8.69333333 103.065333,8.07866667 C102.573333,7.288 101.817333,6.89333333 100.8,6.89333333 C99.8706667,6.89333333 99.1146667,7.27866667 98.5373333,8.052 C98.064,8.66666667 97.7826667,9.404 97.696,10.2626667 L103.617333,10.2626667 L103.617333,10.264 Z" id="Shape"></path>
                                </g>
                                <g id="Group" transform="translate(1.688000, 0.000000)" opacity="0.699999988">
                                    <g id="Group-12">
                                        <path d="M7.16533333,4.604 C7.16533333,6.17333333 6.69466667,7.35466667 5.75466667,8.148 C4.884,8.88 3.64666667,9.24666667 2.044,9.24666667 C1.24933333,9.24666667 0.569333333,9.212 0,9.14266667 L0,0.568 C0.742666667,0.448 1.54266667,0.386666667 2.40666667,0.386666667 C3.93333333,0.386666667 5.084,0.718666667 5.86,1.38266667 C6.72933333,2.13333333 7.16533333,3.20666667 7.16533333,4.604 Z M5.692,4.64266667 C5.692,3.62533333 5.42266667,2.84533333 4.884,2.30133333 C4.34533333,1.75866667 3.55866667,1.48666667 2.52266667,1.48666667 C2.08266667,1.48666667 1.708,1.516 1.39733333,1.57733333 L1.39733333,8.096 C1.56933333,8.12266667 1.884,8.13466667 2.34133333,8.13466667 C3.41066667,8.13466667 4.236,7.83733333 4.81733333,7.24266667 C5.39866667,6.648 5.692,5.78133333 5.692,4.64266667 Z" id="Shape"></path>
                                        <path d="M14.9773333,5.97466667 C14.9773333,6.94133333 14.7013333,7.73333333 14.1493333,8.35466667 C13.5706667,8.99333333 12.804,9.312 11.8466667,9.312 C10.924,9.312 10.1893333,9.00666667 9.64133333,8.39333333 C9.09466667,7.78133333 8.82133333,7.00933333 8.82133333,6.07866667 C8.82133333,5.10533333 9.10266667,4.30666667 9.668,3.68666667 C10.2333333,3.06666667 10.9933333,2.756 11.9506667,2.756 C12.8733333,2.756 13.6146667,3.06133333 14.176,3.67333333 C14.7093333,4.268 14.9773333,5.036 14.9773333,5.97466667 Z M13.528,6.02 C13.528,5.44 13.4026667,4.94266667 13.1533333,4.528 C12.86,4.02666667 12.4426667,3.776 11.9,3.776 C11.3386667,3.776 10.912,4.02666667 10.6186667,4.528 C10.368,4.94266667 10.244,5.448 10.244,6.04533333 C10.244,6.62533333 10.3693333,7.12266667 10.6186667,7.53733333 C10.9213333,8.03866667 11.3426667,8.28933333 11.8866667,8.28933333 C12.42,8.28933333 12.8386667,8.03466667 13.14,7.524 C13.3986667,7.10133333 13.528,6.6 13.528,6.02 Z" id="Shape"></path>
                                        <path d="M25.452,2.884 L23.4853333,9.16933333 L22.2053333,9.16933333 L21.3906667,6.44 C21.184,5.75866667 21.016,5.08133333 20.8853333,4.40933333 L20.86,4.40933333 C20.7386667,5.1 20.5706667,5.776 20.3546667,6.44 L19.4893333,9.16933333 L18.1946667,9.16933333 L16.3453333,2.884 L17.7813333,2.884 L18.492,5.872 C18.664,6.57866667 18.8053333,7.252 18.9186667,7.88933333 L18.944,7.88933333 C19.048,7.364 19.22,6.69466667 19.4626667,5.88533333 L20.3546667,2.88533333 L21.4933333,2.88533333 L22.348,5.82133333 C22.5546667,6.53733333 22.7226667,7.22666667 22.852,7.89066667 L22.8906667,7.89066667 C22.9853333,7.244 23.128,6.55466667 23.3173333,5.82133333 L24.08,2.88533333 L25.452,2.88533333 L25.452,2.884 Z" id="Path"></path>
                                        <path d="M32.696,9.16933333 L31.2986667,9.16933333 L31.2986667,5.56933333 C31.2986667,4.46 30.8773333,3.90533333 30.032,3.90533333 C29.6173333,3.90533333 29.2826667,4.05733333 29.0226667,4.36266667 C28.7653333,4.668 28.6346667,5.028 28.6346667,5.44 L28.6346667,9.168 L27.2373333,9.168 L27.2373333,4.68 C27.2373333,4.128 27.22,3.52933333 27.1866667,2.88133333 L28.4146667,2.88133333 L28.48,3.864 L28.5186667,3.864 C28.6813333,3.55866667 28.924,3.30666667 29.2426667,3.10533333 C29.6213333,2.87066667 30.0453333,2.752 30.5093333,2.752 C31.096,2.752 31.584,2.94133333 31.972,3.32133333 C32.4546667,3.78666667 32.696,4.48133333 32.696,5.404 L32.696,9.16933333 L32.696,9.16933333 Z" id="Path"></path>
                                        <polygon id="Path" points="36.5493333 9.16933333 35.1533333 9.16933333 35.1533333 0 36.5493333 0"></polygon>
                                        <path d="M44.776,5.97466667 C44.776,6.94133333 44.5,7.73333333 43.948,8.35466667 C43.3693333,8.99333333 42.6013333,9.312 41.6453333,9.312 C40.7213333,9.312 39.9866667,9.00666667 39.44,8.39333333 C38.8933333,7.78133333 38.62,7.00933333 38.62,6.07866667 C38.62,5.10533333 38.9013333,4.30666667 39.4666667,3.68666667 C40.032,3.06666667 40.792,2.756 41.748,2.756 C42.672,2.756 43.412,3.06133333 43.9746667,3.67333333 C44.508,4.268 44.776,5.036 44.776,5.97466667 Z M43.3253333,6.02 C43.3253333,5.44 43.2,4.94266667 42.9506667,4.528 C42.6586667,4.02666667 42.24,3.776 41.6986667,3.776 C41.136,3.776 40.7093333,4.02666667 40.4173333,4.528 C40.1666667,4.94266667 40.0426667,5.448 40.0426667,6.04533333 C40.0426667,6.62533333 40.168,7.12266667 40.4173333,7.53733333 C40.72,8.03866667 41.1413333,8.28933333 41.6853333,8.28933333 C42.2186667,8.28933333 42.636,8.03466667 42.9373333,7.524 C43.1973333,7.10133333 43.3253333,6.6 43.3253333,6.02 Z" id="Shape"></path>
                                        <path d="M51.5386667,9.16933333 L50.284,9.16933333 L50.18,8.44533333 L50.1413333,8.44533333 C49.712,9.02266667 49.1,9.312 48.3053333,9.312 C47.712,9.312 47.232,9.12133333 46.8706667,8.74266667 C46.5426667,8.39866667 46.3786667,7.97066667 46.3786667,7.46266667 C46.3786667,6.69466667 46.6986667,6.10933333 47.3426667,5.704 C47.9853333,5.29866667 48.8893333,5.1 50.0533333,5.10933333 L50.0533333,4.992 C50.0533333,4.164 49.6186667,3.75066667 48.748,3.75066667 C48.128,3.75066667 47.5813333,3.90666667 47.1093333,4.216 L46.8253333,3.29866667 C47.4093333,2.93733333 48.1306667,2.756 48.9813333,2.756 C50.624,2.756 51.448,3.62266667 51.448,5.356 L51.448,7.67066667 C51.448,8.29866667 51.4786667,8.79866667 51.5386667,9.16933333 Z M50.088,7.00933333 L50.088,6.04 C48.5466667,6.01333333 47.776,6.436 47.776,7.30666667 C47.776,7.63466667 47.864,7.88 48.044,8.044 C48.224,8.208 48.4533333,8.28933333 48.7266667,8.28933333 C49.0333333,8.28933333 49.32,8.192 49.5813333,7.99866667 C49.844,7.804 50.0053333,7.55733333 50.0653333,7.25466667 C50.08,7.18666667 50.088,7.104 50.088,7.00933333 Z" id="Shape"></path>
                                        <path d="M59.4786667,9.16933333 L58.2386667,9.16933333 L58.1733333,8.16 L58.1346667,8.16 C57.7386667,8.928 57.064,9.312 56.116,9.312 C55.3586667,9.312 54.728,9.01466667 54.228,8.42 C53.728,7.82533333 53.4786667,7.05333333 53.4786667,6.10533333 C53.4786667,5.088 53.7493333,4.264 54.2933333,3.63466667 C54.82,3.048 55.4653333,2.75466667 56.2333333,2.75466667 C57.0773333,2.75466667 57.668,3.03866667 58.004,3.608 L58.0306667,3.608 L58.0306667,2.27373675e-12 L59.4293333,2.27373675e-12 L59.4293333,7.476 C59.4293333,8.088 59.4453333,8.652 59.4786667,9.16933333 Z M58.0306667,6.51866667 L58.0306667,5.47066667 C58.0306667,5.28933333 58.0173333,5.14266667 57.992,5.03066667 C57.9133333,4.69466667 57.744,4.412 57.4866667,4.184 C57.2266667,3.956 56.9133333,3.84133333 56.552,3.84133333 C56.0306667,3.84133333 55.6226667,4.048 55.3226667,4.46266667 C55.0253333,4.87733333 54.8746667,5.40666667 54.8746667,6.05333333 C54.8746667,6.67466667 55.0173333,7.17866667 55.304,7.56666667 C55.6066667,7.98 56.0146667,8.18666667 56.5253333,8.18666667 C56.984,8.18666667 57.3506667,8.01466667 57.6293333,7.66933333 C57.8986667,7.35066667 58.0306667,6.96666667 58.0306667,6.51866667 Z" id="Shape"></path>
                                        <path d="M71.4293333,5.97466667 C71.4293333,6.94133333 71.1533333,7.73333333 70.6013333,8.35466667 C70.0226667,8.99333333 69.2573333,9.312 68.2986667,9.312 C67.3773333,9.312 66.6426667,9.00666667 66.0933333,8.39333333 C65.5466667,7.78133333 65.2733333,7.00933333 65.2733333,6.07866667 C65.2733333,5.10533333 65.5546667,4.30666667 66.12,3.68666667 C66.6853333,3.06666667 67.4453333,2.756 68.404,2.756 C69.3253333,2.756 70.068,3.06133333 70.628,3.67333333 C71.1613333,4.268 71.4293333,5.036 71.4293333,5.97466667 Z M69.9813333,6.02 C69.9813333,5.44 69.856,4.94266667 69.6066667,4.528 C69.312,4.02666667 68.896,3.776 68.352,3.776 C67.792,3.776 67.3653333,4.02666667 67.0706667,4.528 C66.82,4.94266667 66.696,5.448 66.696,6.04533333 C66.696,6.62533333 66.8213333,7.12266667 67.0706667,7.53733333 C67.3733333,8.03866667 67.7946667,8.28933333 68.3386667,8.28933333 C68.872,8.28933333 69.292,8.03466667 69.5933333,7.524 C69.8506667,7.10133333 69.9813333,6.6 69.9813333,6.02 Z" id="Shape"></path>
                                        <path d="M78.9426667,9.16933333 L77.5466667,9.16933333 L77.5466667,5.56933333 C77.5466667,4.46 77.1253333,3.90533333 76.2786667,3.90533333 C75.864,3.90533333 75.5293333,4.05733333 75.2706667,4.36266667 C75.012,4.668 74.8826667,5.028 74.8826667,5.44 L74.8826667,9.168 L73.484,9.168 L73.484,4.68 C73.484,4.128 73.468,3.52933333 73.4346667,2.88133333 L74.6613333,2.88133333 L74.7266667,3.864 L74.7653333,3.864 C74.9293333,3.55866667 75.172,3.30666667 75.4893333,3.10533333 C75.8693333,2.87066667 76.292,2.752 76.7573333,2.752 C77.3426667,2.752 77.8306667,2.94133333 78.2186667,3.32133333 C78.7026667,3.78666667 78.9426667,4.48133333 78.9426667,5.404 L78.9426667,9.16933333 L78.9426667,9.16933333 Z" id="Path"></path>
                                        <path d="M88.3466667,3.93066667 L86.808,3.93066667 L86.808,6.984 C86.808,7.76 87.0813333,8.148 87.6226667,8.148 C87.8733333,8.148 88.0813333,8.12666667 88.2453333,8.08266667 L88.2813333,9.14266667 C88.0053333,9.24666667 87.6426667,9.29866667 87.196,9.29866667 C86.644,9.29866667 86.2146667,9.13066667 85.904,8.79466667 C85.592,8.45866667 85.4373333,7.89333333 85.4373333,7.1 L85.4373333,3.93066667 L84.5186667,3.93066667 L84.5186667,2.884 L85.4373333,2.884 L85.4373333,1.732 L86.8066667,1.31866667 L86.8066667,2.88266667 L88.3453333,2.88266667 L88.3453333,3.93066667 L88.3466667,3.93066667 Z" id="Path"></path>
                                        <path d="M95.744,9.16933333 L94.3453333,9.16933333 L94.3453333,5.596 C94.3453333,4.46933333 93.924,3.90533333 93.08,3.90533333 C92.432,3.90533333 91.9893333,4.232 91.7466667,4.88533333 C91.7053333,5.02266667 91.6813333,5.19066667 91.6813333,5.388 L91.6813333,9.168 L90.2853333,9.168 L90.2853333,0 L91.6813333,0 L91.6813333,3.788 L91.708,3.788 C92.148,3.09866667 92.7786667,2.75466667 93.596,2.75466667 C94.1746667,2.75466667 94.6533333,2.944 95.0333333,3.324 C95.5066667,3.79733333 95.744,4.50133333 95.744,5.432 L95.744,9.16933333 L95.744,9.16933333 Z" id="Path"></path>
                                        <path d="M103.374667,5.72933333 C103.374667,5.98 103.356,6.19066667 103.322667,6.36266667 L99.132,6.36266667 C99.1506667,6.984 99.3506667,7.45733333 99.7386667,7.78533333 C100.093333,8.07866667 100.550667,8.22533333 101.110667,8.22533333 C101.730667,8.22533333 102.296,8.12666667 102.805333,7.928 L103.024,8.89866667 C102.428,9.15733333 101.726667,9.28666667 100.914667,9.28666667 C99.9413333,9.28666667 99.1746667,9 98.62,8.42666667 C98.0626667,7.85333333 97.7866667,7.084 97.7866667,6.11866667 C97.7866667,5.17066667 98.044,4.38133333 98.5626667,3.752 C99.104,3.08 99.836,2.744 100.76,2.744 C101.664,2.744 102.350667,3.08 102.814667,3.752 C103.189333,4.28533333 103.374667,4.94533333 103.374667,5.72933333 Z M102.041333,5.368 C102.052,4.95333333 101.96,4.596 101.770667,4.29466667 C101.528,3.90666667 101.158667,3.712 100.658667,3.712 C100.202667,3.712 99.8306667,3.90133333 99.5466667,4.28133333 C99.3146667,4.584 99.1773333,4.94533333 99.132,5.368 L102.041333,5.368 Z" id="Shape"></path>
                                    </g>
                                </g>
                            </g>
                        </g>
                    </g>
                </g>
            </g>
        </g>
    </g>
</svg>