<?xml version="1.0" encoding="UTF-8"?>
<svg width="201px" height="60px" viewBox="0 0 201 60" version="1.1" xmlns="http://www.w3.org/2000/svg" xmlns:xlink="http://www.w3.org/1999/xlink">
    <title>Google_Play_Store_badge_EN Copy</title>
    <defs>
        <linearGradient x1="61.0301652%" y1="4.94958549%" x2="26.4625815%" y2="71.9258683%" id="linearGradient-1">
            <stop stop-color="#00A0FF" offset="0%"></stop>
            <stop stop-color="#00A1FF" offset="0.6569999%"></stop>
            <stop stop-color="#00BEFF" offset="26.01%"></stop>
            <stop stop-color="#00D2FF" offset="51.22%"></stop>
            <stop stop-color="#00DFFF" offset="76.04%"></stop>
            <stop stop-color="#00E3FF" offset="100%"></stop>
        </linearGradient>
        <linearGradient x1="107.630451%" y1="50.0004315%" x2="-130.551706%" y2="50.0004315%" id="linearGradient-2">
            <stop stop-color="#FFE000" offset="0%"></stop>
            <stop stop-color="#FFBD00" offset="40.87%"></stop>
            <stop stop-color="#FFA500" offset="77.54%"></stop>
            <stop stop-color="#FF9C00" offset="100%"></stop>
        </linearGradient>
        <linearGradient x1="86.243474%" y1="30.90425%" x2="-50.1292379%" y2="136.019454%" id="linearGradient-3">
            <stop stop-color="#FF3A44" offset="0%"></stop>
            <stop stop-color="#C31162" offset="100%"></stop>
        </linearGradient>
        <linearGradient x1="-18.8105628%" y1="-11.8250802%" x2="42.0848536%" y2="35.086648%" id="linearGradient-4">
            <stop stop-color="#32A071" offset="0%"></stop>
            <stop stop-color="#2DA771" offset="6.85%"></stop>
            <stop stop-color="#15CF74" offset="47.62%"></stop>
            <stop stop-color="#06E775" offset="80.09%"></stop>
            <stop stop-color="#00F076" offset="100%"></stop>
        </linearGradient>
    </defs>
    <g id="site_1.1" stroke="none" stroke-width="1" fill="none" fill-rule="evenodd">
        <g id="Medium-Devices:-Tablets---6-col-Copy-3" transform="translate(-41.000000, -258.000000)">
            <g id="Group-5" transform="translate(39.000000, 86.000000)">
                <g id="1" transform="translate(0.000000, 15.000000)">
                    <g id="Google_Play_Store_badge_EN-Copy" transform="translate(2.000000, 157.000000)">
                        <path d="M189,60 L12,60 C5.372583,60 8.11624501e-16,54.627417 0,48 L0,12 C-8.11624501e-16,5.372583 5.372583,1.21743675e-15 12,0 L189,0 C195.627417,-1.21743675e-15 201,5.372583 201,12 L201,48 C201,54.627417 195.627417,60 189,60 Z" id="Path" fill="#0B2C47" fill-rule="nonzero" opacity="0.300000012"></path>
                        <g id="Group-17" transform="translate(63.000000, 20.273402)" fill="#FFFFFF">
                            <path d="M37.6301928,6.56638891 C34.3539322,6.56638891 31.6982544,9.05218661 31.6982544,12.4809926 C31.6982544,15.8785962 34.371267,18.3955964 37.6301928,18.3955964 C40.9064534,18.3955964 43.5621313,15.892464 43.5621313,12.4809926 C43.5621313,9.05218661 40.9064534,6.56638891 37.6301928,6.56638891 Z M37.6301928,16.0519433 C35.8377836,16.0519433 34.2949942,14.568092 34.2949942,12.4671249 C34.2949942,10.3349553 35.8412505,8.88230643 37.6301928,8.88230643 C39.422602,8.88230643 40.9653972,10.3349553 40.9653972,12.4671249 C40.9688583,14.5819597 39.422602,16.0519433 37.6301928,16.0519433 Z M24.6880968,6.56638891 C21.4118363,6.56638891 18.7561584,9.05218661 18.7561584,12.4809926 C18.7561584,15.8785962 21.429171,18.3955964 24.6880968,18.3955964 C27.9643574,18.3955964 30.6200353,15.892464 30.6200353,12.4809926 C30.6200353,9.05218661 27.9608905,6.56638891 24.6880968,6.56638891 Z M24.6880968,16.0519433 C22.8956876,16.0519433 21.3528982,14.568092 21.3528982,12.4671249 C21.3528982,10.3349553 22.8991546,8.88230643 24.6880968,8.88230643 C26.4805061,8.88230643 28.0232954,10.3349553 28.0232954,12.4671249 C28.0232954,14.5819597 26.4805061,16.0519433 24.6880968,16.0519433 Z M9.28793869,8.3726659 L9.28793869,10.8757983 L15.2961499,10.8757983 C15.1124019,12.27991 14.6478316,13.3165258 13.9371084,14.027249 C13.0565051,14.9078523 11.6974637,15.8647284 9.30180646,15.8647284 C5.6095128,15.8647284 2.72154978,12.883158 2.72154978,9.1908643 C2.72154978,5.49857065 5.6095128,2.51700018 9.30180646,2.51700018 C11.2952983,2.51700018 12.7479472,3.30399611 13.8261663,4.3094094 L15.6012408,2.53433489 C14.1035217,1.09902074 12.1100298,0 9.31567423,0 C4.25047138,0 0,4.12566146 0,9.17699653 C0,14.2421994 4.24700444,18.3539931 9.31567423,18.3539931 C12.0510918,18.3539931 14.1035217,17.4595219 15.7260507,15.7745879 C17.3797823,14.1208564 17.9032906,11.7876042 17.9032906,9.90505444 C17.9032906,9.31914117 17.8582203,8.79216593 17.7646129,8.34493036 L9.28447175,8.34493036 C9.28793869,8.34146341 9.28793869,8.3726659 9.28793869,8.3726659 Z M72.2788152,10.3210875 C71.7830424,8.99324859 70.2853233,6.55252114 67.2136123,6.55252114 C64.1696369,6.55252114 61.6387689,8.94817833 61.6387689,12.4671249 C61.6387689,15.7884557 64.1419013,18.3817286 67.5083024,18.3817286 C70.2125175,18.3817286 71.7865093,16.7279971 72.4348276,15.7572532 L70.4274679,14.4120796 C69.761815,15.4001581 68.8361414,16.0484764 67.5221702,16.0484764 C66.1943312,16.0484764 65.2651907,15.4452284 64.6480749,14.2560671 L72.5561705,10.9798066 C72.5561705,10.9832735 72.2788152,10.3210875 72.2788152,10.3210875 Z M64.2147071,12.2972447 C64.1523022,10.0125297 65.9897816,8.85110395 67.3037528,8.85110395 C68.3403686,8.85110395 69.2036372,9.36074448 69.4983274,10.1026702 L64.2147071,12.2972447 Z M57.7904629,18.0281005 L60.3872027,18.0281005 L60.3872027,0.651785171 L57.7904629,0.651785171 L57.7904629,18.0281005 Z M53.5261237,7.88036008 L53.4325163,7.88036008 C52.846603,7.18350465 51.7337145,6.55252114 50.3122681,6.55252114 C47.3619001,6.55252114 44.6438173,9.14926099 44.6438173,12.4844596 C44.6438173,15.8057904 47.3480324,18.3713278 50.3122681,18.3713278 C51.7163798,18.3713278 52.846603,17.7368773 53.4325163,17.0261541 L53.5261237,17.0261541 L53.5261237,17.875555 C53.5261237,20.1325345 52.3196278,21.3494313 50.3746731,21.3494313 C48.7833465,21.3494313 47.7952679,20.2053403 47.3931026,19.2484642 L45.1361231,20.1914725 C45.7844413,21.7515966 47.5144456,23.6826835 50.3712061,23.6826835 C53.4151816,23.6826835 55.9945867,21.8902743 55.9945867,17.5184599 L55.9945867,6.90614926 L53.5399915,6.90614926 L53.5399915,7.88036008 C53.5434584,7.88036008 53.5261237,7.88036008 53.5261237,7.88036008 Z M50.5445533,16.0519433 C48.752144,16.0519433 47.2544249,14.5542242 47.2544249,12.4844596 C47.2544249,10.3973603 48.752144,8.88577337 50.5445533,8.88577337 C52.3196278,8.88577337 53.6960039,10.414695 53.6960039,12.4844596 C53.7133386,14.5542242 52.3230947,16.0519433 50.5445533,16.0519433 Z M84.4373822,0.651785171 L78.2280883,0.651785171 L78.2280883,18.0281005 L80.8248282,18.0281005 L80.8248282,11.4478438 L84.4408491,11.4478438 C87.3149443,11.4478438 90.1405024,9.36421142 90.1405024,6.05674837 C90.1405024,2.74928532 87.3253452,0.651785171 84.4373822,0.651785171 Z M84.5136549,9.02098413 L80.8213612,9.02098413 L80.8213612,3.0578432 L84.5136549,3.0578432 C86.4586096,3.0578432 87.5576303,4.66303753 87.5576303,6.03941366 C87.5576303,7.40192202 86.4447418,9.02098413 84.5136549,9.02098413 Z M100.548263,6.53518642 C98.6622468,6.53518642 96.7172921,7.37071954 95.9129615,9.1908643 L98.2150113,10.1477404 C98.710784,9.1908643 99.6191229,8.86497172 100.579466,8.86497172 C101.92464,8.86497172 103.283681,9.66930235 103.314884,11.1046165 L103.314884,11.2883645 C102.850313,11.0248768 101.831032,10.6227115 100.610668,10.6227115 C98.1248707,10.6227115 95.6044036,11.9817529 95.6044036,14.5299556 C95.6044036,16.8632078 97.6429658,18.360927 99.913813,18.360927 C101.657685,18.360927 102.618028,17.573931 103.217809,16.6621252 L103.311417,16.6621252 L103.311417,18.0072988 L105.814549,18.0072988 L105.814549,11.3507694 C105.814549,8.25132291 103.512499,6.53518642 100.548263,6.53518642 Z M100.222371,16.0519433 C99.37297,16.0519433 98.1838088,15.6359102 98.1838088,14.568092 C98.1838088,13.2229183 99.6676601,12.7132778 100.933094,12.7132778 C102.077185,12.7132778 102.618028,12.9594307 103.297549,13.299191 C103.110334,14.8593151 101.792896,16.0380755 100.222371,16.0519433 Z M114.946475,6.90614926 L111.964905,14.443282 L111.871297,14.443282 L108.782252,6.90614926 L105.987896,6.90614926 L110.623198,17.4421872 L107.981388,23.2978529 L110.685603,23.2978529 L117.817104,6.90614926 C117.817104,6.90614926 114.946475,6.90614926 114.946475,6.90614926 Z M91.5723496,18.0281005 L94.1690895,18.0281005 L94.1690895,0.651785171 L91.5723496,0.651785171 L91.5723496,18.0281005 Z" id="Shape"></path>
                        </g>
                        <g id="Group-15" transform="translate(18.000000, 12.000000)">
                            <path d="M0.631881834,0.545358582 C0.231344715,0.976971856 0,1.63647694 0,2.49970349 L0,33.1166227 C0,33.9798493 0.231344715,34.6393544 0.645693459,35.0537031 L0.752733551,35.1469316 L17.9067715,17.9928936 L17.9067715,17.609621 L0.738921926,0.452130115 C0.738921926,0.452130115 0.631881834,0.545358582 0.631881834,0.545358582 Z" id="Path" fill="url(#linearGradient-1)"></path>
                            <path d="M23.6144255,23.7281708 L17.8929599,18.0067052 L17.8929599,17.6061681 L23.6144255,11.8847025 L23.7387301,11.9606665 L30.5064262,15.807204 C32.4435066,16.8983223 32.4435066,18.7007394 30.5064262,19.8056693 L23.7387301,23.6522068 C23.7387301,23.6522068 23.6144255,23.7281708 23.6144255,23.7281708 Z" id="Path" fill="url(#linearGradient-2)"></path>
                            <path d="M23.7387301,23.6522068 L17.8929599,17.8064367 L0.631881834,35.0675147 C1.26376367,35.7442843 2.32380587,35.8202483 3.5081527,35.1607432 L23.7387301,23.6522068" id="Path" fill="url(#linearGradient-3)"></path>
                            <path d="M23.7387301,11.9606665 L3.5081527,0.469394646 C2.32380587,-0.207374969 1.26031076,-0.114146502 0.631881834,0.562623113 L17.8929599,17.8064367 L23.7387301,11.9606665 Z" id="Path" fill="url(#linearGradient-4)"></path>
                            <path d="M23.6144255,23.5279022 L3.52196432,34.9432101 C2.39976981,35.5889036 1.39842701,35.5440158 0.752733551,34.9570217 L0.645693459,35.0640618 L0.752733551,35.1572903 C1.39842701,35.7408314 2.39976981,35.7891721 3.52196432,35.1434787 L23.7525417,23.6522068 C23.7525417,23.6522068 23.6144255,23.5279022 23.6144255,23.5279022 Z" id="Path" fill="#000000" fill-rule="nonzero" opacity="0.2"></path>
                            <path d="M30.5064262,19.6054008 L23.5971609,23.5279022 L23.7214656,23.6522068 L30.4891617,19.8056693 C31.4594284,19.2532044 31.9359294,18.5280941 31.9359294,17.8064367 C31.87723,18.4693946 31.3834644,19.0978236 30.5064262,19.6054008 Z" id="Path" fill="#000000" fill-rule="nonzero" opacity="0.12"></path>
                            <path d="M3.5081527,0.669663205 L30.5064262,16.0074725 C31.3834644,16.5012381 31.87723,17.1469316 31.9531939,17.8064367 C31.9531939,17.0847793 31.4766929,16.359669 30.5064262,15.807204 L3.5081527,0.469394646 C1.57107232,-0.638988243 0,0.286390617 0,2.49970349 L0,2.69997205 C0,0.48320627 1.57107232,-0.424908059 3.5081527,0.669663205 Z" id="Path" fill="#FFFFFF" opacity="0.25"></path>
                        </g>
                    </g>
                </g>
            </g>
        </g>
    </g>
</svg>