<?xml version="1.0" encoding="UTF-8"?>
<svg width="132px" height="36px" viewBox="0 0 132 36" version="1.1" xmlns="http://www.w3.org/2000/svg" xmlns:xlink="http://www.w3.org/1999/xlink">
    <title>2Asset 1as2sdвфfssad</title>
    <g id="site_1.1" stroke="none" stroke-width="1" fill="none" fill-rule="evenodd">
        <g id="Medium-Devices:-Tablets---6-col-Copy-2" transform="translate(-39.000000, -20.000000)" fill="#1088EC" fill-rule="nonzero">
            <g id="2Asset-1as2sdвфfssad" transform="translate(39.000000, 20.000000)">
                <g id="Group" transform="translate(49.472531, 10.500000)">
                    <path d="M1.37577809,13.5939545 C0.963412924,13.5940656 0.572755199,13.4090474 0.311437018,13.0898752 C0.0501188367,12.770703 -0.0542844175,12.3510572 0.0269919275,11.9465566 L2.1142011,1.61787101 C2.29168234,0.734297754 3.03436997,0.076346395 3.93244685,0.0070763622 C4.83052372,-0.0621936706 5.66522242,0.474091485 5.97595384,1.32000816 L7.83365316,6.37369243 L9.69966805,1.31834412 C10.0106925,0.472442009 10.8456837,-0.0635951694 11.7438181,0.00606630609 C12.6419524,0.0757277816 13.3844039,0.734115233 13.5614208,1.61787101 L15.6319988,11.9465566 C15.7515495,12.4369872 15.5931374,12.9535445 15.2192449,13.2924833 C14.8453525,13.6314221 14.3160012,13.738332 13.8399827,13.5710445 C13.3639643,13.4037571 13.0176947,12.9891273 12.9377527,12.4906972 L11.3727616,4.71131818 L9.12256719,10.8266589 C8.9229672,11.3663677 8.40880742,11.7248199 7.83365316,11.7252395 L7.83365316,11.7252395 C7.25807474,11.7245623 6.74379017,11.3653592 6.54473913,10.8249948 L4.29288159,4.71131818 L2.72123803,12.4906972 C2.59164829,13.1315607 2.02926287,13.5927085 1.37577809,13.5939545 Z" id="Path"></path>
                    <path d="M25.826893,2.91582087 C25.1797533,2.90643158 24.6353127,3.39887915 24.5795569,4.04403883 C23.7089042,3.36871198 22.6393483,3.00068345 21.5377197,2.99735875 C18.6985961,2.99735875 16.3970317,5.30020109 16.3970317,8.14090108 C16.3970317,10.9816011 18.6985961,13.2844434 21.5377197,13.2844434 C22.6377143,13.2909683 23.706889,12.9210704 24.567915,12.2360993 C24.6028405,12.9682761 25.1200692,13.4908526 25.8252299,13.4908526 C26.568512,13.4981922 27.178036,12.9032046 27.1889841,12.1595535 L27.1889841,4.25037958 C27.1798503,3.50607825 26.5708092,2.9093479 25.826893,2.91582087 L25.826893,2.91582087 Z M23.9841617,8.15254935 C23.9976602,9.15045535 23.4067237,10.0574551 22.48874,10.4477994 C21.5707563,10.8381438 20.5080025,10.6343251 19.7993391,9.93201661 C19.0906758,9.22970812 18.8768168,8.16836186 19.2581484,7.24617778 C19.63948,6.32399369 20.540284,5.72408281 21.5377197,5.72804557 C22.1842916,5.72272683 22.8062803,5.97565529 23.2658265,6.4307712 C23.7253727,6.88588712 23.9845181,7.50559796 23.9858248,8.15254935 L23.9841617,8.15254935 Z" id="Shape"></path>
                    <path d="M34.5499305,2.87588395 C33.5218413,2.87323302 32.5139822,3.16168229 31.6428057,3.7079031 C31.3967132,3.22784184 30.9047374,2.92403191 30.3655335,2.91914895 C29.5869819,2.91082588 28.9486243,3.53464945 28.9385809,4.31361303 L28.9385809,16.2830404 C28.975171,17.0375616 29.5972389,17.6305068 30.3522286,17.6305068 C31.1072183,17.6305068 31.7292861,17.0375616 31.7658762,16.2830404 L31.7658762,12.8884023 C32.6119433,13.3742199 33.5694601,13.6322241 34.5449412,13.6372195 C37.5154122,13.6372195 39.9234547,11.22784 39.9234547,8.25571973 C39.9234547,5.28359945 37.5154122,2.87421992 34.5449412,2.87421992 L34.5499305,2.87588395 Z M37.1410635,8.25738376 C37.1518509,9.30833664 36.5274271,10.261823 35.5600912,10.6715062 C34.5927553,11.0811894 33.4739267,10.8660001 32.7273403,10.1266706 C31.980754,9.38734112 31.7541466,8.27017214 32.1535955,7.29812184 C32.5530445,6.32607155 33.4995055,5.69149215 34.5499305,5.69142279 C35.9718647,5.68681372 37.1300837,6.83303097 37.1410635,8.25571973 L37.1410635,8.25738376 Z" id="Shape"></path>
                    <path d="M46.4112658,6.8246468 L50.9715268,2.45821034 C51.2294628,2.1914965 51.3700362,1.83261997 51.3619133,1.46157403 C51.3537905,1.09052808 51.1976465,0.738154453 50.9282858,0.482996902 C50.6748764,0.231790062 50.3320388,0.0917053203 49.975321,0.0935927327 L49.960353,0.0935927327 C49.5874582,0.0956653157 49.2309778,0.24732857 48.9707996,0.514613629 L44.5352723,4.72463049 L44.5352723,1.48807603 C44.5093182,0.736221579 43.8926357,0.140140419 43.1407504,0.140140419 C42.3888651,0.140140419 41.7721827,0.736221579 41.7462286,1.48807603 L41.7462286,12.181186 C41.7721827,12.9330405 42.3888651,13.5291216 43.1407504,13.5291216 C43.8926357,13.5291216 44.5093182,12.9330405 44.5352723,12.181186 L44.5352723,8.93963946 L49.0256824,13.1995775 C49.2863013,13.4211862 49.6166748,13.5437456 49.9586899,13.5457567 C50.3415275,13.549223 50.7090355,13.3953898 50.9753169,13.1201529 C51.2415984,12.844916 51.3833166,12.472397 51.3673482,12.0896639 C51.3477562,11.7153626 51.1758777,11.3654017 50.8916973,11.1211936 L46.4112658,6.8246468 Z" id="Path"></path>
                    <path d="M68.4275806,2.91582087 C67.7804408,2.90643158 67.2360002,3.39887915 67.1802444,4.04403883 C66.3095917,3.36871198 65.2400358,3.00068345 64.1384073,2.99735875 C61.2992837,2.99735875 58.9977192,5.30020109 58.9977192,8.14090108 C58.9977192,10.9816011 61.2992837,13.2844434 64.1384073,13.2844434 C65.2384019,13.2909683 66.3075766,12.9210704 67.1686026,12.2360993 C67.203528,12.9682761 67.7207568,13.4908526 68.4259175,13.4908526 C69.1691996,13.4981922 69.7787235,12.9032046 69.7896717,12.1595535 L69.7896717,4.25037958 C69.7805379,3.50607825 69.1714968,2.9093479 68.4275806,2.91582087 L68.4275806,2.91582087 Z M66.5848493,8.15254935 C66.5983478,9.15045535 66.0074113,10.0574551 65.0894276,10.4477994 C64.1714439,10.8381438 63.1086901,10.6343251 62.4000267,9.93201661 C61.6913634,9.22970812 61.4775044,8.16836186 61.858836,7.24617778 C62.2401675,6.32399369 63.1409716,5.72408281 64.1384073,5.72804557 C64.7846922,5.72317213 65.406252,5.97629755 65.8654372,6.43136512 C66.3246225,6.88643268 66.5835396,7.50588864 66.5848493,8.15254935 Z" id="Shape"></path>
                    <path d="M77.1506181,2.87588395 C76.1230813,2.87345645 75.1158169,3.16190055 74.2451564,3.7079031 C73.9990639,3.22784184 73.5070881,2.92403191 72.9678842,2.91914895 C72.1899789,2.91174958 71.5526389,3.53530549 71.5425947,4.31361303 L71.5425947,16.2830404 C71.5791848,17.0375616 72.2012527,17.6305068 72.9562424,17.6305068 C73.7112321,17.6305068 74.3332999,17.0375616 74.36989,16.2830404 L74.36989,12.8884023 C75.2159571,13.3742199 76.1734739,13.6322241 77.148955,13.6372195 C80.119426,13.6372195 82.5274685,11.22784 82.5274685,8.25571973 C82.5274685,5.28359945 80.119426,2.87421992 77.148955,2.87421992 L77.1506181,2.87588395 Z M79.7417511,8.25738376 C79.7525385,9.30833664 79.1281147,10.261823 78.1607788,10.6715062 C77.1934429,11.0811894 76.0746142,10.8660001 75.3280279,10.1266706 C74.5814415,9.38734112 74.3548342,8.27017214 74.7542831,7.29812184 C75.153732,6.32607155 76.100193,5.69149215 77.1506181,5.69142279 C78.5725523,5.68681372 79.7307713,6.83303097 79.7417511,8.25571973 L79.7417511,8.25738376 Z" id="Shape"></path>
                    <path d="M56.6128125,10.7401289 L55.9475665,10.7401289 L55.9475665,1.53134102 C55.9599864,0.794143734 55.4148718,0.166196237 54.6835992,0.0753075221 C54.2896443,0.0363085199 53.8975724,0.165771349 53.6042021,0.431726398 C53.3108317,0.697681447 53.1435549,1.07533737 53.1435549,1.47143564 L53.1435549,10.2558937 C53.1435549,12.0700451 54.613399,13.5407053 56.4265436,13.5407053 L56.6660322,13.5407053 C57.0619106,13.5407053 57.439357,13.3733356 57.7051645,13.0798024 C57.9709719,12.7862691 58.1003629,12.3939796 58.0613856,11.9998059 C57.9677818,11.273055 57.3451168,10.7315865 56.6128125,10.7401289 L56.6128125,10.7401289 Z" id="Path"></path>
                </g>
                <g id="Shape-2">
                    <path d="M41.3108285,25.9978748 L31.2881662,3.08106079 C30.4839724,1.19688972 28.6424528,-0.0167840374 26.6137793,0.000175474564 L26.562381,0.000175474564 C24.5144756,0.00104681156 22.6699972,1.25353544 21.893705,3.1706078 L21.0070849,5.30529307 L20.9000051,5.30529307 C19.2198977,5.43556817 17.84367,6.70712049 17.5635287,8.38799816 C17.2833875,10.0688758 18.1714097,11.7266102 19.7164172,12.406949 L19.7506827,12.4242807 L19.7892314,12.4387237 C21.3745999,13.0999668 23.2012809,12.5617113 24.1876565,11.1426701 C25.1740322,9.72362886 25.0568002,7.80259987 23.9053761,6.51706637 L24.787713,4.39249125 C25.0929123,3.65711699 25.8012896,3.1758841 26.5896576,3.16834846 C27.3780257,3.16081283 28.0952655,3.62841891 28.4141464,4.35782789 L38.4368086,27.2775305 C38.9537345,28.4610436 38.8445716,29.8286378 38.1466283,30.9129137 C37.4486851,31.9971896 36.256461,32.6513394 34.9774197,32.6517957 C33.4793221,32.6514607 32.1223972,31.7572934 31.5166029,30.3712354 L27.3633373,20.860476 C26.8447007,19.6455671 25.6575267,18.8627541 24.3494,18.87311 L24.3494,18.87311 C23.0385313,18.8647254 21.8505952,19.652595 21.3354627,20.8720304 C21.3161023,20.9337702 21.256325,20.9730767 21.1926897,20.9659103 L21.1926897,20.9659103 C21.1294516,20.9732482 21.0698168,20.9346388 21.0499167,20.8734747 L18.835508,15.8314001 C17.6225257,13.0692524 14.9132108,11.2907934 11.9254632,11.2954817 C8.93771556,11.3001701 6.23386773,13.0871235 5.02936214,15.8530647 L0.589122873,26.0498698 C-0.948478009,29.5719753 0.627509905,33.6881502 4.10919043,35.2436038 C7.59087095,36.7990575 11.6598025,35.2047713 13.1974036,31.6826659 L13.9412507,29.9812726 L14.9692161,31.0211734 C15.3161544,31.3721399 15.9286504,31.3100348 16.1470931,30.8767427 C16.2165776,30.7356109 16.2410229,30.5761335 16.2170518,30.4203418 L15.2776057,24.0798355 C15.2373158,23.8068033 15.0555917,23.5764973 14.8013354,23.4762397 C14.547079,23.3759822 14.2592202,23.4211236 14.0469027,23.5945485 L9.04984888,27.6776035 C8.89691323,27.8008834 8.79754403,27.9796484 8.77286933,28.1758893 C8.75630348,28.3940884 8.83500796,28.6086853 8.98825072,28.7631517 C9.14149348,28.9176181 9.35390862,28.9964653 9.56954248,28.9789238 L10.9844226,28.8965983 L10.3262392,30.4030102 C9.72648661,31.7757027 8.38325802,32.6617695 6.89968801,32.6633501 C5.63378006,32.6616742 4.45419048,32.0138794 3.76319221,30.9408817 C3.07219393,29.8678841 2.96310839,28.5145952 3.4731368,27.3425243 L7.91337607,17.1457192 C8.61666426,15.5308441 10.1952804,14.4875269 11.9396741,14.484714 C13.6840677,14.4819011 15.2659639,15.5201217 15.9743378,17.1327204 L18.1887465,22.174795 C18.7091582,23.3859033 19.8944439,24.1653697 21.1998284,24.1549395 L21.2026838,24.1549395 C22.5119986,24.1615755 23.6978102,23.3739957 24.212338,22.156019 C24.2316983,22.0942792 24.2914757,22.0549728 24.3551109,22.0621391 L24.3551109,22.0621391 C24.4187462,22.0549728 24.4785236,22.0942792 24.4978839,22.156019 L28.6511495,31.6667785 C29.6107237,34.0194126 31.7561786,35.6604586 34.2552824,35.9533472 C36.7543862,36.2462359 39.2139081,35.1448815 40.6797882,33.0765046 C42.1456682,31.0081276 42.3872522,28.2981846 41.3108285,25.9978748 Z M21.2897753,10.3993627 C20.732897,10.4432874 20.2047225,10.143438 19.9516596,9.63970255 C19.6985968,9.13596706 19.7705123,8.52760786 20.1338556,8.098441 C20.4971989,7.66927414 21.0803722,7.50386812 21.6113094,7.67938932 C22.1422466,7.85491053 22.516325,8.33677203 22.559027,8.90017238 C22.6172656,9.66855895 22.049267,10.3394566 21.2897753,10.3993627 L21.2897753,10.3993627 Z" id="Shape"></path>
                </g>
            </g>
        </g>
    </g>
</svg>