<svg width="126" height="28" viewBox="0 0 126 28" fill="none" xmlns="http://www.w3.org/2000/svg">
    <path d="M44.3765 20.594C43.9639 20.5941 43.5731 20.409 43.3116 20.0899C43.0501 19.7707 42.9457 19.3511 43.027 18.9466L45.1154 8.61787C45.293 7.7343 46.0361 7.07635 46.9346 7.00708C47.8332 6.93781 48.6684 7.47409 48.9793 8.32001L50.838 13.3737L52.7051 8.31834C53.0163 7.47244 53.8517 6.9364 54.7503 7.00607C55.649 7.07573 56.3918 7.73412 56.569 8.61787L58.6407 18.9466C58.7603 19.437 58.6018 19.9535 58.2277 20.2925C57.8536 20.6314 57.3239 20.7383 56.8477 20.571C56.3714 20.4038 56.0249 19.9891 55.9449 19.4907L54.3791 11.7113L52.1276 17.8267C51.9279 18.3664 51.4135 18.7248 50.838 18.7252C50.2621 18.7246 49.7475 18.3654 49.5484 17.825L47.2953 11.7113L45.7227 19.4907C45.5931 20.1316 45.0304 20.5927 44.3765 20.594Z" fill="#1088EC"/>
    <path fill-rule="evenodd" clip-rule="evenodd" d="M67.5933 11.0441C67.6491 10.3989 68.1938 9.90645 68.8413 9.91584C69.5857 9.90937 70.1951 10.5061 70.2042 11.2504V19.1596C70.1932 19.9032 69.5834 20.4982 68.8397 20.4908C68.1341 20.4908 67.6166 19.9683 67.5817 19.2361C66.7202 19.9211 65.6504 20.291 64.5498 20.2845C61.7091 20.2845 59.4062 17.9816 59.4062 15.1409C59.4062 12.3002 61.7091 9.99738 64.5498 9.99738C65.652 10.0007 66.7222 10.3687 67.5933 11.0441ZM65.5013 17.4478C66.4198 17.0575 67.0111 16.1505 66.9976 15.1526H66.9993C66.9979 14.5056 66.7387 13.8859 66.2789 13.4308C65.8191 12.9757 65.1967 12.7227 64.5498 12.7281C63.5518 12.7241 62.6505 13.324 62.269 14.2462C61.8874 15.1684 62.1014 16.2297 62.8104 16.932C63.5195 17.6343 64.5828 17.8382 65.5013 17.4478Z" fill="#1088EC"/>
    <path fill-rule="evenodd" clip-rule="evenodd" d="M74.6603 10.7079C75.532 10.1617 76.5404 9.87322 77.5691 9.87587L77.5641 9.87421C80.5362 9.87421 82.9456 12.2836 82.9456 15.2557C82.9456 18.2278 80.5362 20.6372 77.5641 20.6372C76.588 20.6322 75.63 20.3742 74.7835 19.8884V23.283C74.7468 24.0375 74.1244 24.6305 73.369 24.6305C72.6136 24.6305 71.9912 24.0375 71.9546 23.283V11.3136C71.9646 10.5346 72.6034 9.91081 73.3823 9.91914C73.9218 9.92402 74.4141 10.2278 74.6603 10.7079ZM78.5798 17.6715C79.5476 17.2618 80.1724 16.3083 80.1616 15.2574V15.2557C80.1506 13.833 78.9918 12.6868 77.5691 12.6914C76.518 12.6915 75.5711 13.3261 75.1714 14.2981C74.7717 15.2702 74.9985 16.3873 75.7455 17.1267C76.4925 17.866 77.6119 18.0812 78.5798 17.6715Z" fill="#1088EC"/>
    <path d="M89.4372 13.8246L94 9.45818C94.258 9.19147 94.3987 8.83259 94.3906 8.46155C94.3824 8.0905 94.2262 7.73813 93.9567 7.48297C93.7031 7.23176 93.3601 7.09168 93.0032 7.09359H92.9882C92.6151 7.09564 92.2584 7.2473 91.9981 7.51459L87.5601 11.7246V8.48805C87.5342 7.7362 86.9171 7.14011 86.1648 7.14011C85.4125 7.14011 84.7955 7.7362 84.7695 8.48805V19.1812C84.7955 19.933 85.4125 20.5291 86.1648 20.5291C86.9171 20.5291 87.5342 19.933 87.5601 19.1812V15.9396L92.053 20.1996C92.3138 20.4212 92.6443 20.5437 92.9866 20.5457C93.3696 20.5492 93.7373 20.3954 94.0037 20.1201C94.2702 19.8449 94.412 19.4724 94.396 19.0896C94.3764 18.7153 94.2044 18.3654 93.9201 18.1212L89.4372 13.8246Z" fill="#1088EC"/>
    <path fill-rule="evenodd" clip-rule="evenodd" d="M110.217 11.0441C110.273 10.3989 110.818 9.90645 111.465 9.91584C112.21 9.90937 112.819 10.5061 112.828 11.2504V19.1596C112.817 19.9032 112.207 20.4982 111.464 20.4908C110.758 20.4908 110.241 19.9683 110.206 19.2361C109.344 19.9211 108.274 20.291 107.174 20.2845C104.333 20.2845 102.03 17.9816 102.03 15.1409C102.03 12.3002 104.333 9.99738 107.174 9.99738C108.276 10.0007 109.346 10.3687 110.217 11.0441ZM108.125 17.4478C109.044 17.0575 109.635 16.1505 109.622 15.1526C109.62 14.5059 109.361 13.8865 108.902 13.4314C108.442 12.9763 107.82 12.7232 107.174 12.7281C106.176 12.7241 105.275 13.324 104.893 14.2462C104.511 15.1684 104.725 16.2297 105.434 16.932C106.144 17.6343 107.207 17.8382 108.125 17.4478Z" fill="#1088EC"/>
    <path fill-rule="evenodd" clip-rule="evenodd" d="M117.287 10.7079C118.158 10.1619 119.166 9.87344 120.194 9.87587L120.192 9.87421C123.164 9.87421 125.573 12.2836 125.573 15.2557C125.573 18.2278 123.164 20.6372 120.192 20.6372C119.216 20.6322 118.258 20.3742 117.411 19.8884V23.283C117.375 24.0375 116.752 24.6305 115.997 24.6305C115.242 24.6305 114.619 24.0375 114.583 23.283V11.3136C114.593 10.5353 115.23 9.91174 116.009 9.91914C116.548 9.92402 117.04 10.2278 117.287 10.7079ZM121.204 17.6715C122.172 17.2618 122.797 16.3083 122.786 15.2574V15.2557C122.775 13.833 121.616 12.6868 120.194 12.6914C119.143 12.6915 118.196 13.3261 117.796 14.2981C117.396 15.2702 117.623 16.3873 118.37 17.1267C119.117 17.866 120.237 18.0812 121.204 17.6715Z" fill="#1088EC"/>
    <path d="M99.644 17.7401H98.9784V8.53134C98.9908 7.79414 98.4454 7.16619 97.7138 7.0753C97.3196 7.0363 96.9273 7.16577 96.6338 7.43172C96.3402 7.69768 96.1728 8.07533 96.1729 8.47143V17.2559C96.1729 19.07 97.6435 20.5407 99.4577 20.5407H99.6973C100.093 20.5407 100.471 20.3733 100.737 20.0798C101.003 19.7863 101.132 19.394 101.093 18.9998C101 18.2731 100.377 17.7316 99.644 17.7401Z" fill="#1088EC"/>
    <path fill-rule="evenodd" clip-rule="evenodd" d="M24.3488 2.39638L32.1485 20.2206C32.9862 22.0097 32.7982 24.1174 31.6574 25.7262C30.5166 27.3349 28.6026 28.1915 26.6578 27.9637C24.713 27.7359 23.0434 26.4595 22.2966 24.6297L19.0645 17.2325C19.0494 17.1844 19.0029 17.1539 18.9534 17.1594C18.9039 17.1539 18.8573 17.1844 18.8423 17.2325C18.4419 18.1798 17.5191 18.7923 16.5001 18.7872H16.4979C15.482 18.7953 14.5596 18.189 14.1547 17.2471L12.4314 13.3254C11.8801 12.0712 10.6491 11.2637 9.29157 11.2659C7.93407 11.2681 6.70557 12.0795 6.15827 13.3356L2.70283 21.2664C2.30592 22.178 2.39081 23.2306 2.92855 24.0651C3.46629 24.8997 4.38426 25.4035 5.3694 25.4048C6.52393 25.4036 7.56924 24.7144 8.03598 23.6468L8.54818 22.4751L7.44711 22.5392C7.2793 22.5528 7.114 22.4915 6.99474 22.3713C6.87549 22.2512 6.81424 22.0843 6.82713 21.9146C6.84633 21.7619 6.92366 21.6229 7.04268 21.527L10.9314 18.3513C11.0967 18.2164 11.3207 18.1813 11.5185 18.2593C11.7164 18.3373 11.8578 18.5164 11.8892 18.7288L12.6203 23.6603C12.6389 23.7814 12.6199 23.9055 12.5658 24.0152C12.3958 24.3522 11.9192 24.4006 11.6492 24.1276L10.8492 23.3188L10.2703 24.6421C9.07377 27.3815 5.90729 28.6215 3.19781 27.4117C0.488334 26.2019 -0.738115 23.0004 0.458461 20.261L3.9139 12.3302C4.85126 10.1789 6.95542 8.78902 9.28051 8.78537C11.6056 8.78173 13.714 10.165 14.658 12.3133L16.3812 16.2349C16.3967 16.2825 16.4431 16.3125 16.4924 16.3068C16.5419 16.3124 16.5884 16.2818 16.6035 16.2338C17.0043 15.2854 17.9288 14.6726 18.9489 14.6791C19.9669 14.671 20.8908 15.2799 21.2944 16.2248L24.5265 23.6221C24.998 24.7001 26.0539 25.3956 27.2198 25.3958C28.2151 25.3955 29.1429 24.8867 29.6861 24.0434C30.2292 23.2001 30.3142 22.1364 29.9119 21.2159L22.1122 3.38942C21.864 2.8221 21.3058 2.45841 20.6923 2.46427C20.0788 2.47013 19.5275 2.84442 19.29 3.41638L18.6034 5.06883C19.4994 6.06869 19.5907 7.56282 18.8231 8.66652C18.0555 9.77022 16.6339 10.1889 15.4002 9.67456L15.3702 9.66333L15.3435 9.64985C14.1412 9.1207 13.4501 7.83135 13.6681 6.524C13.8861 5.21665 14.9571 4.22766 16.2646 4.12634H16.3479L17.0379 2.46603C17.642 0.974972 19.0774 0.000814187 20.6711 0.000275841H20.7111C22.2898 -0.0130543 23.7229 0.930914 24.3488 2.39638ZM15.5266 7.49755C15.7235 7.88934 16.1345 8.12256 16.5679 8.08839C17.159 8.0418 17.601 7.51999 17.5557 6.92236C17.5224 6.48416 17.2313 6.10938 16.8181 5.97286C16.4049 5.83634 15.9511 5.96499 15.6684 6.29879C15.3856 6.63258 15.3296 7.10575 15.5266 7.49755Z" fill="#1088EC"/>
</svg>
